<?xml version="1.0" standalone="no"?>
<!DOCTYPE svg PUBLIC "-//W3C//DTD SVG 20010904//EN"
 "http://www.w3.org/TR/2001/REC-SVG-20010904/DTD/svg10.dtd">
<svg version="1.0" xmlns="http://www.w3.org/2000/svg"
 width="700.000000pt" height="700.000000pt" viewBox="0 0 700.000000 700.000000"
 preserveAspectRatio="xMidYMid meet">
<metadata>
Created by potrace 1.11, written by Peter Selinger 2001-2013
</metadata>
<g transform="translate(0.000000,700.000000) scale(0.100000,-0.100000)"
fill="#000000" stroke="none">
<path d="M2835 6976 c-951 -181 -1805 -763 -2324 -1584 -78 -123 -155 -261
-149 -267 2 -2 66 3 142 13 124 15 140 19 154 39 8 13 12 26 9 29 -3 4 -43 1
-88 -5 -128 -17 -126 -17 -131 30 -2 22 -1 42 2 44 3 2 69 11 148 21 l143 17
75 104 c561 769 1376 1246 2334 1365 138 17 602 17 740 0 672 -83 1268 -338
1774 -761 l100 -84 131 15 c142 16 145 16 145 -39 0 -37 -5 -39 -107 -49 -40
-4 -73 -10 -73 -14 0 -4 9 -15 20 -25 18 -16 28 -17 137 -5 65 7 122 16 127
21 12 11 -259 278 -392 387 -476 387 -1016 641 -1590 747 -132 25 -140 25
-670 24 -516 -1 -542 -2 -657 -23z"/>
<path d="M3320 6703 c-483 -45 -764 -116 -1155 -291 -190 -84 -488 -267 -650
-397 -138 -110 -297 -259 -397 -372 -101 -112 -251 -303 -245 -309 2 -2 493
57 1092 132 1222 151 1704 210 2825 348 426 53 792 99 813 102 l38 6 -73 59
c-512 418 -1124 661 -1803 719 -111 9 -363 11 -445 3z"/>
<path d="M5195 5774 c-280 -36 -1383 -173 -2450 -304 l-1940 -240 -22 -27
c-12 -15 -21 -28 -19 -30 1 -1 945 114 2097 257 2836 351 2909 360 2916 360 4
0 -4 11 -17 25 -13 14 -31 24 -39 24 -9 -1 -245 -30 -526 -65z"/>
<path d="M6175 5788 c8 -42 6 -43 -95 -53 -110 -11 -109 -6 -19 -108 92 -105
224 -288 310 -428 l59 -95 90 11 c50 6 93 9 95 6 1 -3 5 -24 6 -46 l4 -40 -70
-8 c-38 -5 -71 -10 -73 -11 -1 -2 21 -52 49 -112 168 -358 264 -700 310 -1104
26 -222 13 -633 -25 -857 l-13 -72 64 6 c52 5 63 3 63 -9 0 -9 3 -29 6 -46 l6
-30 -76 -7 c-42 -4 -78 -10 -80 -14 -2 -3 -7 -21 -11 -39 -6 -31 -5 -32 17
-28 12 3 43 7 68 8 l45 3 5 -42 c7 -48 9 -47 -102 -58 -49 -5 -68 -11 -68 -22
0 -48 -125 -387 -209 -566 l-50 -109 74 7 75 7 0 -38 c1 -39 1 -38 42 41 101
197 204 480 263 719 66 273 66 272 62 886 l-3 555 -27 120 c-131 586 -375
1094 -733 1530 -64 77 -66 79 -59 43z"/>
<path d="M3282 5390 c-1410 -175 -2569 -321 -2577 -324 -18 -7 -154 -284 -209
-426 -52 -138 -97 -280 -87 -280 3 0 150 18 326 40 176 21 1468 181 2870 354
1403 174 2589 321 2636 328 l87 13 -63 99 c-118 187 -380 518 -409 515 -6 -1
-1164 -144 -2574 -319z"/>
<path d="M283 4974 c-101 -216 -186 -474 -250 -759 l-27 -120 -3 -562 -4 -561
31 -154 c65 -322 172 -637 308 -903 34 -67 40 -74 35 -44 -6 42 -5 43 119 55
l67 6 -17 35 c-15 32 -19 34 -52 29 -19 -3 -65 -8 -102 -12 l-68 -7 0 37 c0
20 0 39 0 44 -1 4 33 12 75 18 41 6 78 13 81 16 3 4 -3 23 -14 45 -63 124
-161 432 -206 648 -92 442 -91 960 4 1384 l18 83 -36 -5 c-20 -4 -67 -9 -103
-13 l-67 -7 -4 39 c-3 22 -3 42 1 46 3 4 54 12 113 19 59 7 111 15 116 18 4 3
20 49 35 101 38 128 127 350 197 491 l58 115 -96 -13 c-136 -17 -139 -17 -149
13 -8 24 -13 18 -60 -82z"/>
<path d="M4830 4815 c-1308 -163 -2578 -320 -3955 -490 -242 -30 -454 -57
-471 -60 -31 -5 -32 -7 -53 -108 -47 -223 -62 -365 -68 -617 -7 -339 18 -565
97 -880 45 -177 175 -539 199 -555 4 -2 149 13 322 35 505 63 2973 368 4414
545 732 91 1344 167 1362 170 30 5 32 8 43 73 56 318 54 771 -5 1106 -50 286
-155 607 -281 859 l-54 107 -38 -1 c-20 0 -701 -83 -1512 -184z"/>
<path d="M6245 2709 c-437 -55 -1450 -181 -3870 -479 -940 -116 -1720 -213
-1733 -216 -21 -4 -22 -6 -7 -34 9 -17 24 -30 34 -30 10 0 999 121 2197 270
1199 148 2328 288 2509 310 993 123 1287 160 1294 165 5 2 11 18 13 35 6 38
36 40 -437 -21z"/>
<path d="M6265 2549 c-170 -22 -1253 -156 -2405 -299 -3105 -384 -3142 -389
-3148 -395 -8 -7 79 -147 177 -284 106 -148 246 -311 267 -311 12 0 4673 575
5081 627 l131 16 65 136 c36 75 77 164 91 198 34 82 116 322 116 339 0 19 -17
18 -375 -27z"/>
<path d="M535 1839 c-33 -4 -79 -11 -103 -14 l-43 -6 36 -67 c58 -106 218
-342 308 -454 45 -56 87 -109 94 -118 9 -12 10 -10 6 11 l-5 27 102 12 c92 11
100 14 87 29 -118 133 -306 397 -378 528 -19 35 -36 62 -39 62 -3 -1 -32 -5
-65 -10z"/>
<path d="M6499 1828 c-70 -9 -77 -12 -94 -42 -10 -17 -55 -87 -100 -156 -483
-734 -1252 -1257 -2105 -1430 -217 -44 -363 -61 -590 -67 -701 -20 -1377 177
-1960 571 -137 93 -320 241 -445 360 l-100 96 -109 -15 c-60 -8 -111 -17 -114
-20 -8 -8 247 -255 358 -346 452 -371 936 -606 1527 -741 l138 -31 555 -4
c614 -5 612 -5 885 62 936 229 1746 841 2228 1682 26 45 47 85 47 88 0 6 -23
5 -121 -7z"/>
<path d="M3740 1487 c-1378 -171 -2507 -312 -2509 -314 -5 -4 125 -125 219
-204 883 -740 2125 -949 3213 -540 628 236 1173 668 1552 1232 47 69 85 128
85 132 0 4 -12 6 -27 6 -16 -1 -1155 -141 -2533 -312z"/>
</g>
</svg>
